Love for All and Sharing is the first step to solving all the problems of humanity.

Websites I want to share.

    
http://www.shareintl.org/

    
http://www.lightmiddleway.com


Thank you very much

No credit for me...credit to EVERYONE for sharing
 
http://thepiratebay.org/user/raymondhome/

PLOT
During the on-going Vietnam War, Captain Willard is sent on a dangerous mission into Cambodia to assassinate a renegade Green Beret who has set himself up as a God among a local tribe.

IMDb RATING: 8.6/10 (167,421 votes) Top 250: #35

Format : MPEG-4
Duration : 3h 22mn
Overall bit rate : 1 279 Kbps

Video:
ID : 1
Format : AVC
Format/Info : Advanced Video Codec
Format profile : Main@L3.0
Format settings, CABAC : Yes
Format settings, ReFrames : 2 frames
Codec ID : avc1
Codec ID/Info : Advanced Video Coding
Duration : 3h 22mn
Bit rate mode : Variable
Bit rate : 1 114 Kbps
Width : 720 pixels
Height : 430 pixels
Display aspect ratio : 1.984
Frame rate mode : Variable
Frame rate : 23.976 fps
Minimum frame rate : 9.989 fps
Maximum frame rate : 59.880 fps
Resolution : 8 bits
Colorimetry : 4:2:0
Scan type : Progressive
Bits/(Pixel*Frame) : 0.150
Stream size : 1.58 GiB (87%)
Writing library : x264 core 79

Audio:
ID : 2
Format : AAC
Format/Info : Advanced Audio Codec
Format version : Version 4
Format profile : LC
Format settings, SBR : No
Codec ID : 40
Duration : 3h 22mn
Bit rate mode : Variable
Bit rate : 160 Kbps
Maximum bit rate : 247 Kbps
Channel(s) : 2 channels
Channel positions : Front: L R
Sampling rate : 48.0 KHz
Stream size : 231 MiB (12%)
Language : English

credit BigPerm1828 BIG BIG BIG TIME & to all the people who made it possible for us to share this...especially EVERYONE involve in the production of the movie...IF YOU LIKE IT...BUY IT :)

*****help what we can with others in need...the world is ONE big family*****